<svg width="729" height="191" viewBox="0 0 729 191" fill="none" xmlns="http://www.w3.org/2000/svg">
<rect width="191" height="191" rx="52" fill="#512DA8"/>
<path d="M230.608 127.56L231.664 126.024C233.136 124.104 234.16 122.12 234.736 120.072C235.312 117.96 235.6 115.112 235.6 111.528V78.12C235.6 75.368 235.408 73.576 235.024 72.744C234.64 71.848 233.808 71.4 232.528 71.4H228.592C226.48 71.4 224.848 71.624 223.696 72.072C222.608 72.52 221.712 73.288 221.008 74.376C220.368 75.464 219.76 77.064 219.184 79.176L218.704 81.288L215.728 80.232V64.776L217.168 63.624L218.704 64.776C220.24 65.992 223.504 66.6 228.496 66.6H251.248C256.304 66.6 259.568 65.992 261.04 64.776L262.576 63.624L264.016 64.776V80.232L261.04 81.288L260.56 79.176C259.728 76.04 258.704 73.96 257.488 72.936C256.272 71.912 254.16 71.4 251.152 71.4H247.12C245.904 71.4 245.072 71.848 244.624 72.744C244.24 73.64 244.048 75.432 244.048 78.12V117.48C244.048 120.168 244.4 122.024 245.104 123.048C245.872 124.008 247.408 124.84 249.712 125.544L251.824 126.024L250.768 129H231.664L230.608 127.56ZM309.814 130.44C307.446 130.44 305.75 129.704 304.726 128.232C303.702 126.76 303.19 124.392 303.19 121.128V100.488C303.19 97.48 302.582 95.208 301.366 93.672C300.214 92.136 298.326 91.368 295.702 91.368C293.206 91.368 290.998 92.36 289.078 94.344C287.158 96.328 285.654 99.112 284.566 102.696C283.542 106.28 283.03 110.408 283.03 115.08C283.03 117.768 283.222 119.944 283.606 121.608C284.054 123.272 284.822 124.84 285.91 126.312L286.966 127.656L285.91 129H270.646L269.59 126.312L271.51 125.832C272.982 125.576 273.942 125 274.39 124.104C274.902 123.144 275.158 121.544 275.158 119.304V70.344C275.158 69.64 275.03 69.16 274.774 68.904C274.518 68.584 274.07 68.424 273.43 68.424H269.494L268.822 66.216C270.486 64.68 272.374 63.432 274.486 62.472C276.662 61.448 278.55 60.936 280.15 60.936C280.982 60.936 281.654 61.192 282.166 61.704C282.742 62.216 283.03 62.888 283.03 63.72V97.704C284.502 93.928 286.774 90.824 289.846 88.392C292.918 85.96 296.118 84.744 299.446 84.744C303.67 84.744 306.646 85.992 308.374 88.488C310.166 90.92 311.062 94.92 311.062 100.488V121.512C311.062 123.496 311.894 124.488 313.558 124.488C314.902 124.488 316.342 123.912 317.878 122.76L319.702 124.872C318.102 126.6 316.406 127.976 314.614 129C312.886 129.96 311.286 130.44 309.814 130.44ZM345.154 130.248C341.122 130.248 337.602 129.32 334.594 127.464C331.586 125.608 329.25 123.016 327.586 119.688C325.922 116.296 325.09 112.392 325.09 107.976C325.09 103.368 326.018 99.304 327.874 95.784C329.73 92.264 332.354 89.544 335.746 87.624C339.202 85.704 343.17 84.744 347.65 84.744C352.386 84.744 356.034 85.992 358.594 88.488C361.218 90.984 362.53 93.992 362.53 97.512C362.53 99.944 361.858 102.28 360.514 104.52C359.234 106.76 357.314 108.584 354.754 109.992C352.258 111.4 349.314 112.104 345.922 112.104C344.002 112.104 341.922 111.784 339.682 111.144C337.442 110.44 336.322 109.416 336.322 108.072C336.322 107.56 336.45 107.112 336.706 106.728C336.962 106.344 337.25 106.152 337.57 106.152C337.762 106.152 338.338 106.344 339.298 106.728C340.322 107.048 341.634 107.208 343.234 107.208C346.754 107.208 349.474 106.248 351.394 104.328C353.314 102.408 354.274 100.104 354.274 97.416C354.274 95.112 353.506 93.128 351.97 91.464C350.498 89.8 348.514 88.968 346.018 88.968C342.242 88.968 339.298 90.632 337.186 93.96C335.138 97.224 334.114 101.896 334.114 107.976C334.114 113.16 335.202 117.224 337.378 120.168C339.618 123.048 342.818 124.488 346.978 124.488C352.098 124.488 356.322 122.824 359.65 119.496C359.842 119.304 360.098 119.208 360.418 119.208C360.93 119.208 361.442 119.464 361.954 119.976C362.53 120.488 362.818 121.032 362.818 121.608C362.818 121.8 362.754 121.992 362.626 122.184C362.498 122.312 362.434 122.408 362.434 122.472C360.258 125.032 357.666 126.984 354.658 128.328C351.714 129.608 348.546 130.248 345.154 130.248ZM371.604 126.312L373.236 125.832C374.772 125.576 375.764 125 376.212 124.104C376.724 123.144 376.98 121.544 376.98 119.304V94.92C376.98 94.216 376.852 93.736 376.596 93.48C376.34 93.16 375.892 93 375.252 93H371.508L370.644 90.696C372.308 89.16 374.228 87.912 376.404 86.952C378.58 85.992 380.5 85.512 382.164 85.512C382.996 85.512 383.668 85.768 384.18 86.28C384.692 86.792 384.948 87.432 384.948 88.2V97.704H385.428C386.452 93.8 387.988 90.664 390.036 88.296C392.148 85.928 394.42 84.744 396.852 84.744C399.284 84.744 401.268 85.544 402.804 87.144C404.404 88.68 405.204 90.824 405.204 93.576C405.204 95.752 404.404 97.576 402.804 99.048C401.204 100.52 399.188 101.256 396.756 101.256C395.604 101.256 395.028 100.968 395.028 100.392C395.028 100.2 395.252 99.752 395.7 99.048C396.148 98.344 396.532 97.64 396.852 96.936C397.172 96.232 397.332 95.4 397.332 94.44C397.332 93.352 397.076 92.52 396.564 91.944C396.052 91.304 395.38 90.984 394.548 90.984C393.204 90.984 391.796 91.816 390.324 93.48C388.852 95.144 387.572 97.8 386.484 101.448C385.46 105.096 384.948 109.736 384.948 115.368C384.948 117.992 385.14 120.136 385.524 121.8C385.972 123.4 386.708 124.904 387.732 126.312L388.788 127.656L387.732 129H372.468L371.604 126.312ZM424.834 130.248C422.018 130.248 419.394 129.448 416.962 127.848C414.594 126.184 412.674 123.784 411.202 120.648C409.794 117.448 409.09 113.576 409.09 109.032C409.09 101.544 411.106 95.624 415.138 91.272C419.234 86.92 424.738 84.744 431.65 84.744C433.954 84.744 437.09 85.096 441.058 85.8C444.002 86.312 446.658 86.664 449.026 86.856L450.178 87.912L448.93 89.544C448.482 90.312 448.162 90.92 447.97 91.368C447.842 91.752 447.778 92.296 447.778 93V121.32C447.778 123.112 448.706 124.008 450.562 124.008C451.97 124.008 453.41 123.496 454.882 122.472L456.514 124.68C454.978 126.408 453.346 127.784 451.618 128.808C449.89 129.768 448.322 130.248 446.914 130.248C444.482 130.248 442.722 129.544 441.634 128.136C440.546 126.664 440.002 124.296 440.002 121.032C437.698 124.424 435.298 126.824 432.802 128.232C430.37 129.576 427.714 130.248 424.834 130.248ZM428.194 123.432C433.058 123.432 436.994 120.808 440.002 115.56V92.04C437.506 90.376 434.69 89.544 431.554 89.544C427.394 89.544 424.13 91.112 421.762 94.248C419.458 97.32 418.306 101.704 418.306 107.4C418.306 112.904 419.234 116.968 421.09 119.592C423.01 122.152 425.378 123.432 428.194 123.432ZM517.656 148.296C514.712 148.296 512.056 147.272 509.688 145.224C507.384 143.24 505.304 140.136 503.448 135.912L499.992 128.616C496.792 129.704 493.272 130.248 489.432 130.248C483.544 130.248 478.424 128.936 474.072 126.312C469.784 123.688 466.488 119.944 464.184 115.08C461.88 110.216 460.728 104.488 460.728 97.896C460.728 91.24 461.88 85.48 464.184 80.616C466.552 75.688 469.88 71.912 474.168 69.288C478.52 66.664 483.608 65.352 489.432 65.352C495.32 65.352 500.44 66.696 504.792 69.384C509.144 72.008 512.472 75.784 514.776 80.712C517.144 85.576 518.328 91.304 518.328 97.896C518.328 103.848 517.304 109.16 515.256 113.832C513.272 118.44 510.424 122.152 506.712 124.968L511.128 134.664C512.088 136.968 513.304 138.664 514.776 139.752C516.248 140.84 518.04 141.384 520.152 141.384C521.368 141.384 522.424 141.192 523.32 140.808C524.28 140.424 524.824 140.232 524.952 140.232C525.144 140.232 525.336 140.296 525.528 140.424C525.72 140.616 525.816 140.84 525.816 141.096C525.816 143.144 525.016 144.84 523.416 146.184C521.88 147.592 519.96 148.296 517.656 148.296ZM503.064 118.056C504.92 115.56 506.36 112.616 507.384 109.224C508.408 105.768 508.92 102.088 508.92 98.184C508.92 92.808 508.12 88.008 506.52 83.784C504.92 79.496 502.68 76.168 499.8 73.8C496.92 71.432 493.656 70.248 490.008 70.248C486.104 70.248 482.648 71.464 479.64 73.896C476.632 76.264 474.296 79.592 472.632 83.88C470.968 88.168 470.136 93.096 470.136 98.664C470.136 106.92 471.864 113.352 475.32 117.96C475.192 117.704 475.128 117.128 475.128 116.232C475.128 113.416 476.088 111.176 478.008 109.512C479.992 107.848 482.68 107.016 486.072 107.016C489.272 107.016 492.312 107.976 495.192 109.896C498.136 111.752 500.76 114.472 503.064 118.056ZM489.048 125.16C492.056 125.16 494.84 124.424 497.4 122.952C495.736 119.496 493.752 116.808 491.448 114.888C489.144 112.904 486.84 111.912 484.536 111.912C482.872 111.912 481.528 112.424 480.504 113.448C479.48 114.472 478.968 115.816 478.968 117.48C478.968 119.784 479.896 121.64 481.752 123.048C483.608 124.456 486.04 125.16 489.048 125.16ZM543.489 130.248C539.329 130.248 536.097 129 533.793 126.504C531.489 123.944 530.337 120.392 530.337 115.848V94.152C530.337 92.744 529.761 92.04 528.609 92.04H524.673L524.001 89.928C525.473 88.392 527.265 87.144 529.377 86.184C531.553 85.224 533.537 84.744 535.329 84.744C536.161 84.744 536.833 85 537.345 85.512C537.921 85.96 538.209 86.568 538.209 87.336V113.736C538.209 117.192 538.913 119.848 540.321 121.704C541.729 123.496 543.809 124.392 546.561 124.392C550.465 124.392 553.505 122.728 555.681 119.4C557.857 116.008 558.945 111.336 558.945 105.384C558.945 101.16 558.689 97.864 558.177 95.496C557.729 93.064 556.833 90.696 555.489 88.392L554.433 87.048L555.489 85.8L566.241 84.744V121.32C566.241 123.112 567.009 124.008 568.545 124.008C570.017 124.008 571.457 123.496 572.865 122.472L574.593 124.68C573.185 126.344 571.585 127.688 569.792 128.712C568.065 129.736 566.433 130.248 564.897 130.248C562.593 130.248 560.929 129.576 559.905 128.232C558.881 126.824 558.369 124.68 558.369 121.8C556.961 124.424 554.945 126.504 552.321 128.04C549.697 129.512 546.753 130.248 543.489 130.248ZM604.762 149.256L607.45 147.912C608.858 147.4 609.786 146.696 610.234 145.8C610.746 144.968 611.002 143.592 611.002 141.672V121.032C608.698 124.424 606.298 126.824 603.802 128.232C601.37 129.576 598.714 130.248 595.834 130.248C593.018 130.248 590.394 129.448 587.962 127.848C585.594 126.184 583.674 123.784 582.202 120.648C580.794 117.448 580.09 113.576 580.09 109.032C580.09 101.544 582.106 95.624 586.138 91.272C590.234 86.92 595.738 84.744 602.65 84.744C604.89 84.744 608.058 85.096 612.154 85.8C615.162 86.312 617.85 86.664 620.218 86.856L621.274 87.912L620.122 89.544C619.994 89.736 619.77 90.152 619.45 90.792C619.13 91.368 618.97 92.104 618.97 93V139.176C618.97 141.992 619.098 144.104 619.354 145.512C619.674 146.92 620.282 148.232 621.178 149.448L622.042 150.888L621.082 152.04H604.762V149.256ZM599.194 123.432C604.058 123.432 607.994 120.808 611.002 115.56V92.04C608.506 90.376 605.69 89.544 602.554 89.544C598.394 89.544 595.13 91.112 592.762 94.248C590.458 97.32 589.306 101.704 589.306 107.4C589.306 112.904 590.234 116.968 592.09 119.592C594.01 122.152 596.378 123.432 599.194 123.432ZM649.614 130.248C645.454 130.248 642.222 129 639.918 126.504C637.614 123.944 636.462 120.392 636.462 115.848V94.152C636.462 92.744 635.886 92.04 634.734 92.04H630.798L630.126 89.928C631.598 88.392 633.39 87.144 635.502 86.184C637.678 85.224 639.662 84.744 641.454 84.744C642.286 84.744 642.958 85 643.47 85.512C644.046 85.96 644.334 86.568 644.334 87.336V113.736C644.334 117.192 645.038 119.848 646.446 121.704C647.854 123.496 649.934 124.392 652.686 124.392C656.59 124.392 659.63 122.728 661.806 119.4C663.982 116.008 665.07 111.336 665.07 105.384C665.07 101.16 664.814 97.864 664.302 95.496C663.854 93.064 662.958 90.696 661.614 88.392L660.558 87.048L661.614 85.8L672.366 84.744V121.32C672.366 123.112 673.134 124.008 674.67 124.008C676.142 124.008 677.582 123.496 678.99 122.472L680.718 124.68C679.31 126.344 677.71 127.688 675.917 128.712C674.19 129.736 672.558 130.248 671.022 130.248C668.718 130.248 667.054 129.576 666.03 128.232C665.006 126.824 664.494 124.68 664.494 121.8C663.086 124.424 661.07 126.504 658.446 128.04C655.822 129.512 652.878 130.248 649.614 130.248ZM706.279 130.248C702.247 130.248 698.727 129.32 695.719 127.464C692.711 125.608 690.375 123.016 688.711 119.688C687.047 116.296 686.215 112.392 686.215 107.976C686.215 103.368 687.143 99.304 688.999 95.784C690.855 92.264 693.479 89.544 696.871 87.624C700.327 85.704 704.295 84.744 708.775 84.744C713.511 84.744 717.159 85.992 719.719 88.488C722.343 90.984 723.655 93.992 723.655 97.512C723.655 99.944 722.983 102.28 721.639 104.52C720.359 106.76 718.439 108.584 715.879 109.992C713.383 111.4 710.439 112.104 707.047 112.104C705.127 112.104 703.047 111.784 700.807 111.144C698.567 110.44 697.447 109.416 697.447 108.072C697.447 107.56 697.575 107.112 697.831 106.728C698.087 106.344 698.375 106.152 698.695 106.152C698.887 106.152 699.463 106.344 700.423 106.728C701.447 107.048 702.759 107.208 704.359 107.208C707.879 107.208 710.599 106.248 712.519 104.328C714.439 102.408 715.399 100.104 715.399 97.416C715.399 95.112 714.631 93.128 713.095 91.464C711.623 89.8 709.639 88.968 707.143 88.968C703.367 88.968 700.423 90.632 698.311 93.96C696.263 97.224 695.239 101.896 695.239 107.976C695.239 113.16 696.327 117.224 698.503 120.168C700.743 123.048 703.943 124.488 708.103 124.488C713.223 124.488 717.447 122.824 720.775 119.496C720.967 119.304 721.223 119.208 721.543 119.208C722.055 119.208 722.567 119.464 723.079 119.976C723.655 120.488 723.943 121.032 723.943 121.608C723.943 121.8 723.879 121.992 723.751 122.184C723.623 122.312 723.559 122.408 723.559 122.472C721.383 125.032 718.791 126.984 715.783 128.328C712.839 129.608 709.671 130.248 706.279 130.248Z" fill="#212121"/>
<path d="M153.048 78.544C142.958 69.8747 131.259 66.7214 119.332 66.7323C104.234 66.7413 88.657 71.6694 74.4696 76.7421C60.3108 81.8276 47.4442 87.0541 38.3638 87.8845C37.557 87.9623 36.8831 88.534 36.6728 89.3191C36.4572 90.1079 36.7501 90.9437 37.4096 91.4249C41.523 94.4172 46.0928 95.2621 50.1595 95.2603C53.0006 95.2585 55.6332 94.855 57.813 94.4679C59.9694 94.0753 61.7682 93.7225 62.5266 93.7388C62.629 93.7388 62.6973 93.7424 62.7404 93.7496C62.7728 93.7605 62.7746 93.7316 62.9435 93.8871C63.2562 94.1585 63.824 95.206 64.2715 96.8016C65.0927 99.6003 65.7378 103.964 66.5447 109.069C69.0012 124.38 72.8846 146.815 90.4882 158.876C91.1819 159.354 92.1055 159.321 92.7704 158.802C93.4335 158.285 93.6959 157.393 93.412 156.598C90.4541 148.258 89.5951 143.097 89.5879 138.484C89.5825 135.452 89.9761 132.572 90.4541 129.156C93.2987 133.697 97.1587 138.495 101.091 143.117C106.633 149.604 112.351 155.703 115.449 159.643C115.828 160.128 116.392 160.387 116.973 160.387C117.267 160.387 117.573 160.318 117.853 160.177C118.682 159.754 119.095 158.809 118.847 157.908C113.28 137.548 111.158 119.714 111.161 106.656C111.158 100.136 111.688 94.8044 112.548 91.0143C112.978 89.1237 113.488 87.6222 114.009 86.5837C114.52 85.5381 115.057 85.0188 115.26 84.9266L115.359 84.8705C120.66 81.4748 128.342 79.9533 136.009 79.9642C141.391 79.9624 146.764 80.6951 151.278 81.9253C152.153 82.1659 153.084 81.7588 153.508 80.9483C153.932 80.1342 153.74 79.1374 153.048 78.544ZM86.8349 69.0624H86.8762L87.2895 69.0172C93.2592 67.6983 97.9728 64.0765 101.154 59.5971C104.331 55.1069 106.04 49.7519 106.047 44.6719C106.047 42.1445 105.617 39.6769 104.69 37.4354C103.655 34.9189 101.66 33.1496 99.3529 32.1021C97.0419 31.0456 94.3859 30.615 91.6724 30.6132C87.6651 30.6186 83.4942 31.5522 79.9846 33.1496C76.5056 34.7706 73.5567 36.9904 72.403 40.2052H72.3994C71.6231 42.4828 71.2583 45.0391 71.2583 47.6732C71.2691 52.5361 72.4857 57.6903 75.0105 61.8151C77.4957 65.9091 81.5588 69.0624 86.8349 69.0624Z" fill="white"/>
</svg>
